<?xml version="1.0" encoding="UTF-8"?>
<svg id="Calque_1" data-name="Calque 1" xmlns="http://www.w3.org/2000/svg" xmlns:xlink="http://www.w3.org/1999/xlink" viewBox="0 0 694.05 620.86">
  <defs>
    <style>
      .cls-1 {
        fill: #272747;
      }

      .cls-2, .cls-3 {
        fill: none;
      }

      .cls-4 {
        fill: #000091;
      }

      .cls-5 {
        fill: #55cbff;
      }

      .cls-6 {
        fill: #545454;
      }

      .cls-7 {
        fill: #34cb6a;
      }

      .cls-8 {
        fill: #613f3f;
      }

      .cls-9 {
        fill: #e1000f;
      }

      .cls-10 {
        fill: url(#Dégradé_sans_nom_128);
      }

      .cls-11 {
        fill: #525252;
      }

      .cls-12 {
        fill: #4a4a7d;
      }

      .cls-13 {
        clip-path: url(#clippath-1);
      }

      .cls-14 {
        fill: #120091;
      }

      .cls-15 {
        stroke: #525252;
        stroke-width: 5px;
      }

      .cls-15, .cls-16 {
        fill: #161616;
      }

      .cls-15, .cls-3 {
        stroke-miterlimit: 10;
      }

      .cls-17 {
        fill: #fff;
      }

      .cls-18 {
        fill: #473e29;
      }

      .cls-19 {
        fill: #142018;
      }

      .cls-20 {
        fill: url(#Dégradé_sans_nom_76);
      }

      .cls-21 {
        fill: url(#Dégradé_sans_nom_50);
      }

      .cls-22 {
        fill: url(#Dégradé_sans_nom_65);
      }

      .cls-23 {
        fill: #3d5846;
      }

      .cls-24 {
        fill: #2d2d2d;
      }

      .cls-25 {
        fill: #5c5136;
      }

      .cls-26 {
        fill: #5e5e90;
      }

      .cls-27 {
        fill: #447049;
      }

      .cls-28 {
        clip-path: url(#clippath);
      }

      .cls-29 {
        fill: #44624f;
      }

      .cls-3 {
        stroke: #473e29;
        stroke-width: 3px;
      }
    </style>
    <clipPath id="clippath">
      <path class="cls-2" d="M559.38,82.04s87.32-22.45,102.28,132.22c14.97,154.67-51.14,315.59-259.45,387.93C193.9,674.54,37.98,519.87,8.04,423.82c-29.94-96.05,22.45-266.94,178.37-269.43,155.92-2.49,125.99,3.74,197.09-16.22,71.1-19.96,113.51-51.14,175.88-56.13Z"/>
    </clipPath>
    <linearGradient id="Dégradé_sans_nom_50" data-name="Dégradé sans nom 50" x1="184.34" y1="345.97" x2="118.27" y2="468.79" gradientUnits="userSpaceOnUse">
      <stop offset="0" stop-color="#3d5846"/>
      <stop offset=".69" stop-color="#142018"/>
    </linearGradient>
    <linearGradient id="Dégradé_sans_nom_128" data-name="Dégradé sans nom 128" x1="653.47" y1="420.55" x2="668.09" y2="473.05" gradientTransform="translate(1110.7066 54.5101) rotate(-175.1499) scale(1 -1)" gradientUnits="userSpaceOnUse">
      <stop offset=".08" stop-color="#6fe49d"/>
      <stop offset="1" stop-color="#447049"/>
    </linearGradient>
    <linearGradient id="Dégradé_sans_nom_65" data-name="Dégradé sans nom 65" x1="704.47" y1="387.32" x2="708.42" y2="452.8" gradientTransform="translate(1110.7066 54.5101) rotate(-175.1499) scale(1 -1)" gradientUnits="userSpaceOnUse">
      <stop offset="0" stop-color="#3d5846"/>
      <stop offset="1" stop-color="#142018"/>
    </linearGradient>
    <linearGradient id="Dégradé_sans_nom_76" data-name="Dégradé sans nom 76" x1="394.52" y1="411.85" x2="405.49" y2="451.22" gradientUnits="userSpaceOnUse">
      <stop offset=".08" stop-color="#3d5846"/>
      <stop offset="1" stop-color="#142018"/>
    </linearGradient>
    <clipPath id="clippath-1">
      <path class="cls-2" d="M402.21,602.2c112.79-39.17,183.87-104.31,222.99-180.37-107.98-29.26-201.21,25.73-201.21,25.73l-27.71-1.01c-27.97-2.92-69.58-11.74-130.21-33.34-94.8-33.77-200.58-24.62-263.64-13.9,1.33,8.57,3.2,16.78,5.61,24.51,29.94,96.05,185.86,250.72,394.17,178.37Z"/>
    </clipPath>
  </defs>
  <g class="cls-28">
    <path class="cls-1" d="M28.88,452.84l69.72-2.46c72.87,4.92,145.23-10.48,215.16,9.51,34.55-10.33,232.76-51.72,232.76-51.72,0,0,68.15-7.9,98.74-11.17,0,0,146.18-176.59,51.46-309.47-16.73-23.46-115.97-78.25-160.09-83.36-15.55-1.8-94.24-8.88-103-.02-5.05-3.13,23.95,104.61,18.25,106.61-16.68-14.89-65.19-1.3-75.23-1.18-10.96.14-23.1-4.74-34.09-4.7-28.98.09-58.03,2.82-86.99,3.53-6.79.17-62.15-5.98-58.19,6.47.47,1.47,23.46,19.8,9.99,22.92-8.55,1.98-84.79-1.49-105.8,0-5.03-2.38,1.9-14.24,5.88-16.46,4.89-2.73,18.35-.67,18.22-7.64-.2-10.55-85.34-7.73-108.74,11.17-26.54,21.43-26.36,70.91-54.66,88.75,9.73,38.66,26.14,220.35,28.08,235.92l38.53,3.3Z"/>
    <path class="cls-19" d="M-1.08,346.15c-1.46,17.35-7.02,103.46-8.4,119.92,25.23,14.54,52.74,10.58,78.15,24.46,10.16-6.04,20.59-10.42,32.06-13.41.32-2.09-2.27-1.26-2.56-1.56-6.38-6.83,12.17-127.18-99.26-129.41Z"/>
    <rect class="cls-19" x="551.31" y="334.67" width="1.83" height="29.45"/>
    <path class="cls-23" d="M565.34,324.43c0,7.24-5.87,13.12-13.12,13.12v-26.23c7.24,0,13.12,5.87,13.12,13.12Z"/>
    <path class="cls-19" d="M539.11,324.43c0-7.24,5.87-13.12,13.12-13.12v26.23c-7.24,0-13.12-5.87-13.12-13.12Z"/>
    <rect class="cls-19" x="548.74" y="343.73" width="1.83" height="6.83" transform="translate(-73.62 531.98) rotate(-48.79)"/>
    <path class="cls-19" d="M504.24,369.12c.31-.12.27.5.46.5.1,0,.24-.02.38-.03-.47-1.94-.05-4.31.53-5.98,1.84-5.3,6.36-6.79,10.89-4.82-2.29-12.32,6.19-18.81,14.6-11.81,0,0,.01-.01.02-.02.05.05.1.1.15.16.26.22.53.46.79.71-.02.01-.03.03-.05.05,1.38,1.45,2.5,2.98,3.56,4.98,2.83-7.17,9.37-5.85,13.96-.42,1.12,1.32,1.49,2.45,1.96,2.56-.3,1.53-.3,2.87.07,4.48l.06.29c-8.9,2-17.76,4.13-26.63,6.21-.03.1-.06.19-.12.23-4.29.59-17.12,4.3-19.26,4.29-.06,0-.1-.07-.13-.15-.21.04-.42.09-.62.14-.58-.3-.48-.8-.65-1.35Z"/>
    <path class="cls-19" d="M605.84,353.69c3.18-6.3,9.05-9.02,13.22-2.63.58-2.18,1.31-3.92,2.3-5.63-.02-.01-.04-.02-.06-.03.19-.3.39-.59.59-.87.04-.06.07-.12.11-.19,0,0,.01,0,.02.01,6.45-8.66,15.78-4.18,16.21,8.35,3.85-2.91,8.41-2.43,11.25,2.34.9,1.51,1.79,3.72,1.76,5.72.14-.02.28-.03.37-.05.17-.04.01-.63.33-.58-.05.57.15,1.05-.33,1.46-.21,0-.41,0-.61,0-.01.09-.03.16-.09.17-2,.47-14.85-.36-19.01,0-.06-.03-.11-.11-.16-.2-8.78-.1-17.55-.25-26.33-.27v-.29c0-1.64-.27-2.96-.87-4.38.42-.2.54-1.39,1.31-2.92Z"/>
    <path class="cls-19" d="M549.59,358.04c1.39-3.49,4.6-4.15,7.28-2.61.42-8.48,5.54-13.89,11.88-10.09.42,0-.15-2.14.2-3.96,1.12-5.89,6.08-9.78,10.83-9.75,4.57-.37,9.61,3.15,11.11,8.95.46,1.79.07,3.97.47,3.93,5.82-4.25,11.13.78,12.14,9.21,2.47-1.73,5.6-1.31,7.18,2.08.66,1.4.98,2.71,1.03,4.35v.29c-10.26.36-20.54,1.24-30.82,1.5-10.67.51-21.38.4-32.04.81v-.29c-.08-1.64.16-2.97.74-4.41Z"/>
    <rect class="cls-19" x="617.08" y="330.05" width="1.83" height="29.45"/>
    <rect class="cls-19" x="614.51" y="339.11" width="1.83" height="6.83" transform="translate(-47.7 579.88) rotate(-48.79)"/>
    <path class="cls-18" d="M354.32,451.38l-22.47-20.92s0-33.25,25.58-17.05c22.13,14.02,43.76,3.22,49.18.05,71.58-44.38,191.33-90.57,326.81-27.23,218.84,102.31-85.75,142.92-85.75,142.92l-294.98-16.47-15.92-45.29s6.15-6.34,17.55-16Z"/>
    <path class="cls-21" d="M97.01,392.1c-.39,16.48,26.31,5.9,26.03,22.99,3.14-.27,6.52-.77,9.61-.92,1.02-14.62,3.77-13.69,2.58.22,26.66-1.04,52.93.63,79.34,4.13.72-1.92,1.36-4.04,2.23-5.87-1.76-17.97-2.57-36.04-11.14-52.48-25.2-48.37-107.34-23.78-108.65,31.94Z"/>
    <path class="cls-10" d="M445.06,478.79c3.31-.05,4.07-.48,4.37-.5-1.66-24.1-16.09-54.02-41.7-59.84-5.86-1.66-12.18-2-12.83-1.95-15.19,1.07-33.9,27.21-29.63,42.96q12.34,5.16,24.68,10.32c2.4-1.92,10.85,3.38,11.82,3.6.21.05.58-1.29,4.37-.5.67.14.04,1.66.71,1.79,1.53.3,28.58,3.35,30.89,3.49.41.02,3.15-4,7.31.62Z"/>
    <path class="cls-22" d="M340.73,360.8c-18.49-.28-40.26,10.17-49.07,27.02,6.37,17.13,11.4,34.75,19.02,51.42l-1.76.28c49.76,15.59,82.45,40.07,136.13,39.27-4.16-4.62-6.9-.6-7.31-.62-2.31-.13-29.36-3.19-30.89-3.49-.67-.13-.04-1.65-.71-1.79-3.8-.79-4.16.55-4.37.5-.97-.23-9.43-5.52-11.82-3.6q-12.34-5.16-24.68-10.32c-4.27-15.75,14.44-41.89,29.63-42.96-1.16-8.86-7.1-23.29-12.14-30.48-1.73-2.47-7.01-8.45-9.09-10.3-9.2-8.19-20.79-14.74-32.95-14.92Z"/>
    <path class="cls-19" d="M324.57,394.36c2.15,4.3,4.48,14.56,4.64,20.22,14.21-2.82,24.26,13.18,22.32,29.98l-.49,2.3c-62.75-12.05-126.71-23.93-188.01-40.57,2.05-10.17-2.42-17.7,6.48-30.47,31.75-35.73,43.8-5.36,46.18-7.01,15.05-56.77,78.19-38.17,70.62,17.42,13.74-15.05,30.33-7.75,38.26,8.13Z"/>
    <g>
      <polyline class="cls-19" points="353.05 354.32 353.05 418.96 353.05 438.55"/>
      <rect class="cls-19" x="350.43" y="354.32" width="5.24" height="84.23"/>
    </g>
    <path class="cls-23" d="M390.56,325.04c0,20.72-16.79,37.51-37.51,37.51v-75.02c20.72,0,37.51,16.79,37.51,37.51Z"/>
    <path class="cls-19" d="M315.54,325.04c0-20.72,16.79-37.51,37.51-37.51v75.02c-20.72,0-37.51-16.79-37.51-37.51Z"/>
    <g>
      <line class="cls-19" x1="353.05" y1="396.44" x2="338.35" y2="383.57"/>
      <rect class="cls-19" x="343.08" y="380.23" width="5.24" height="19.54" transform="translate(-175.45 393.16) rotate(-48.79)"/>
    </g>
    <g>
      <line class="cls-19" x1="364.09" y1="409.31" x2="353.05" y2="418.96"/>
      <rect class="cls-19" x="351.24" y="411.51" width="14.66" height="5.24" transform="translate(-183.95 338.34) rotate(-41.16)"/>
    </g>
    <path class="cls-7" d="M31.8,431.98c-.07.86-.15,1.72-.22,2.58,2.94-.97,14.59,7.14,15.15,5.18q-7.47-3.88-14.93-7.76Z"/>
    <path class="cls-25" d="M712.67,465.98c-113.64-96.06-296.55-44.33-296.55-44.33,0,0,13.84,5.84,23.76,24.28,0,0-24.46,3.74-48.01.11-27.88-3.36-68.27-12.35-125.8-32.84-146.81-52.3-319.98-1.66-319.98-1.66l-29.21,186.99,200,174.29,314.67-26.19,17.64-29.63,174.43,5.44s202.69-160.4,89.05-256.46Z"/>
    <polyline class="cls-27" points="552.23 334.67 552.23 357.27 552.23 364.12"/>
    <line class="cls-27" x1="552.23" y1="349.39" x2="547.09" y2="344.9"/>
    <path class="cls-4" d="M613.57,499.29c.67,36.58-1.52,73.46,1.24,109.96l-3.1,2.37c-65.83,1.8-131.81-1.71-197.57-1.58v-1.58h91.04c6.91-42.1,36.14-73.41,64.41-36.39,3.87-.73-1.66-63.01,43.97-72.78Z"/>
    <polyline class="cls-19" points="617.99 330.05 617.99 352.65 617.99 359.5"/>
    <path class="cls-23" d="M631.11,319.81c0,7.24-5.87,13.12-13.12,13.12v-26.23c7.24,0,13.12,5.87,13.12,13.12Z"/>
    <path class="cls-19" d="M604.88,319.81c0-7.24,5.87-13.12,13.12-13.12v26.23c-7.24,0-13.12-5.87-13.12-13.12Z"/>
    <line class="cls-19" x1="617.99" y1="344.78" x2="612.85" y2="340.28"/>
    <line class="cls-27" x1="621.85" y1="349.28" x2="617.99" y2="352.65"/>
    <rect class="cls-19" x="617.36" y="350.05" width="5.13" height="1.83" transform="translate(-77.79 494.74) rotate(-41.16)"/>
    <polyline class="cls-27" points="465.72 362.4 465.72 385 465.72 391.85"/>
    <rect class="cls-19" x="464.8" y="362.4" width="1.83" height="29.45"/>
    <path class="cls-23" d="M478.83,352.16c0,7.24-5.87,13.12-13.12,13.12v-26.23c7.24,0,13.12,5.87,13.12,13.12Z"/>
    <path class="cls-19" d="M452.6,352.16c0-7.24,5.87-13.12,13.12-13.12v26.23c-7.24,0-13.12-5.87-13.12-13.12Z"/>
    <line class="cls-27" x1="465.72" y1="377.13" x2="460.58" y2="372.63"/>
    <rect class="cls-19" x="462.23" y="371.46" width="1.83" height="6.83" transform="translate(-124 476.36) rotate(-48.79)"/>
    <line class="cls-27" x1="469.58" y1="381.63" x2="465.72" y2="385"/>
    <rect class="cls-19" x="465.08" y="382.4" width="5.13" height="1.83" transform="translate(-136.72 402.52) rotate(-41.16)"/>
    <polyline class="cls-27" points="35.76 332.49 35.76 380.4 35.76 394.92"/>
    <rect class="cls-19" x="32.6" y="332.49" width="6.32" height="62.43"/>
    <line class="cls-27" x1="35.76" y1="383.29" x2="18.04" y2="367.77"/>
    <path class="cls-23" d="M81.01,297.17c0,24.99-20.26,45.24-45.24,45.24v-90.49c24.99,0,45.24,20.26,45.24,45.24Z"/>
    <path class="cls-19" d="M-9.48,297.17c0-24.99,20.26-45.24,45.24-45.24v90.49c-24.99,0-45.24-20.26-45.24-45.24Z"/>
    <rect class="cls-19" x="23.74" y="363.74" width="6.32" height="23.56" transform="translate(-273.34 148.37) rotate(-48.79)"/>
    <path class="cls-12" d="M614.94,488.25s-.1-.23-.1-.23c-2.33-4.87-5.8-9.21-9.44-13.02-20.39-20.82-50.74-26.88-78.82-26.05-17.24.43-34.72,2.04-51.82,2-11.81-.04-23.44-2.59-34.9-5.29-3.66.75-9.71,1.01-12.75,1.51,12.39,5.01,27.51,11.37,40.76,13.95,22.82,4.26,45.95,3.83,68.66,7.97,14.72,2.89,29.72,8.28,40.79,18.57,3.69,3.59,7.02,7.45,8.75,12.14.09-.04,29.02-11.16,29.02-11.16l-.16-.39Z"/>
    <path class="cls-5" d="M592.48,497.73s-.05.02-.05.02l.1.23c.03.08.02.04.03.06l.03.05s0-.03,0-.04c-.04-.11-.09-.21-.13-.31Z"/>
    <polygon class="cls-6" points="523.04 396.4 536.28 381.64 549.53 396.4 523.04 396.4"/>
    <rect class="cls-24" x="527.35" y="396.4" width="22.18" height="19.68"/>
    <rect class="cls-6" x="516.31" y="381.64" width="19.97" height="14.76"/>
    <polygon class="cls-16" points="503.06 396.4 516.31 381.64 529.56 396.4 503.06 396.4"/>
    <rect class="cls-16" x="503.06" y="396.4" width="26.49" height="19.68"/>
    <polygon class="cls-6" points="578.41 385.05 591.66 370.29 604.9 385.05 578.41 385.05"/>
    <rect class="cls-24" x="562.73" y="385.13" width="42.18" height="31.03"/>
    <rect class="cls-6" x="551.69" y="370.29" width="39.97" height="14.76"/>
    <polygon class="cls-16" points="538.44 385.05 551.69 370.29 564.93 385.05 538.44 385.05"/>
    <rect class="cls-16" x="538.44" y="385.05" width="26.49" height="31.03"/>
    <polygon class="cls-6" points="492.29 419.2 479.04 404.44 465.8 419.2 492.29 419.2"/>
    <rect class="cls-24" x="465.8" y="419.2" width="22.18" height="19.68" transform="translate(953.77 858.09) rotate(-180)"/>
    <rect class="cls-6" x="479.04" y="404.44" width="19.97" height="14.76" transform="translate(978.06 823.65) rotate(-180)"/>
    <polygon class="cls-16" points="512.26 419.2 499.02 404.44 485.77 419.2 512.26 419.2"/>
    <rect class="cls-16" x="485.77" y="419.2" width="26.49" height="19.68" transform="translate(998.03 858.09) rotate(-180)"/>
    <rect class="cls-24" x="575.97" y="415.33" width="22.18" height="19.68"/>
    <rect class="cls-6" x="564.93" y="400.56" width="19.97" height="14.76"/>
    <rect class="cls-16" x="551.69" y="415.33" width="26.49" height="19.68"/>
    <polygon class="cls-6" points="571.66 415.33 584.91 400.56 598.15 415.33 571.66 415.33"/>
    <polygon class="cls-16" points="551.69 415.33 564.93 400.56 578.18 415.33 551.69 415.33"/>
  </g>
  <path class="cls-26" d="M268.46,189.52c-21.93-1.08-28.39,17.6-30.09,18.33-1.93.84-28.17-4.63-28.88,20.78l151.03-.61c3.66-4.56-17.42-53.18-65.59-25.05-5.51-6.09-18.47-13.05-26.48-13.44Z"/>
  <path class="cls-26" d="M105.07,51.31c-29.24-4.15-38.15,17.3-39.97,18.81-1.39,1.15-23.94,3.3-17.63,25.86l119.32-1.76c2.6-3.18-11.29-27.59-34.68-24.1-6.82-8.07-16.01-17.24-27.04-18.81Z"/>
  <path class="cls-26" d="M394.6,73.53c-20.97-2.27-35.35,8.86-45.85,25.86-16.82-6.97-35.52,4.39-42.32,19.98-14.36-3.77-39.88-1.73-40.56,15.87l198.08.59c7.05-3.13-7.78-35.72-32.91-31.74-5.88-14.56-19.95-28.78-36.44-30.56Z"/>
  <rect class="cls-15" x="437.87" y="17.29" width="253.68" height="255.9" rx="34.8" ry="34.8"/>
  <g>
    <rect class="cls-14" x="471.25" y="50.46" width="14.74" height="11.98"/>
    <rect class="cls-9" x="500.52" y="50.46" width="14.59" height="11.98"/>
  </g>
  <g>
    <rect class="cls-15" x="625.92" y="2.5" width="15.87" height="29.74" rx="6.54" ry="6.54"/>
    <rect class="cls-15" x="487.63" y="2.5" width="15.87" height="29.74" rx="6.54" ry="6.54"/>
  </g>
  <rect class="cls-11" x="508.87" y="85.49" width="26.63" height="26.63" rx="4.8" ry="4.8"/>
  <rect class="cls-11" x="551.39" y="85.49" width="26.63" height="26.63" rx="4.8" ry="4.8"/>
  <rect class="cls-11" x="593.92" y="85.49" width="26.63" height="26.63" rx="4.8" ry="4.8"/>
  <rect class="cls-11" x="636.44" y="85.49" width="26.63" height="26.63" rx="4.8" ry="4.8"/>
  <rect class="cls-8" x="508.87" y="128.37" width="26.63" height="26.63" rx="4.8" ry="4.8"/>
  <rect class="cls-11" x="466.35" y="128.37" width="26.63" height="26.63" rx="4.8" ry="4.8"/>
  <rect class="cls-8" x="551.39" y="128.37" width="26.63" height="26.63" rx="4.8" ry="4.8"/>
  <rect class="cls-8" x="593.92" y="128.37" width="26.63" height="26.63" rx="4.8" ry="4.8"/>
  <rect class="cls-29" x="636.44" y="128.37" width="26.63" height="26.63" rx="4.8" ry="4.8"/>
  <rect class="cls-29" x="508.87" y="171.25" width="26.63" height="26.63" rx="4.8" ry="4.8"/>
  <rect class="cls-29" x="466.35" y="171.25" width="26.63" height="26.63" rx="4.8" ry="4.8"/>
  <rect class="cls-29" x="551.39" y="171.25" width="26.63" height="26.63" rx="4.8" ry="4.8"/>
  <rect class="cls-11" x="593.92" y="171.25" width="26.63" height="26.63" rx="4.8" ry="4.8"/>
  <rect class="cls-11" x="636.44" y="171.25" width="26.63" height="26.63" rx="4.8" ry="4.8"/>
  <rect class="cls-11" x="508.87" y="214.14" width="26.63" height="26.63" rx="4.8" ry="4.8"/>
  <rect class="cls-11" x="466.35" y="214.14" width="26.63" height="26.63" rx="4.8" ry="4.8"/>
  <rect class="cls-11" x="551.39" y="214.14" width="26.63" height="26.63" rx="4.8" ry="4.8"/>
  <rect class="cls-11" x="593.92" y="214.14" width="26.63" height="26.63" rx="4.8" ry="4.8"/>
  <path class="cls-17" d="M522.19,140.53l4.04-4.04,1.15,1.15-4.04,4.04,4.04,4.04-1.15,1.15-4.04-4.04-4.04,4.04-1.15-1.15,4.04-4.04-4.04-4.04,1.15-1.15,4.04,4.04Z"/>
  <path class="cls-17" d="M564.71,140.53l4.04-4.04,1.15,1.15-4.04,4.04,4.04,4.04-1.15,1.15-4.04-4.04-4.04,4.04-1.15-1.15,4.04-4.04-4.04-4.04,1.15-1.15,4.04,4.04Z"/>
  <path class="cls-17" d="M607.23,140.53l4.04-4.04,1.15,1.15-4.04,4.04,4.04,4.04-1.15,1.15-4.04-4.04-4.04,4.04-1.15-1.15,4.04-4.04-4.04-4.04,1.15-1.15,4.04,4.04Z"/>
  <path class="cls-17" d="M648.02,144.29l7.51-7.51,1.15,1.15-8.66,8.66-5.2-5.2,1.15-1.15,4.04,4.04Z"/>
  <path class="cls-17" d="M477.93,187.17l7.51-7.51,1.15,1.15-8.66,8.66-5.2-5.2,1.15-1.15,4.04,4.04Z"/>
  <path class="cls-17" d="M562.71,187.17l7.51-7.51,1.15,1.15-8.66,8.66-5.2-5.2,1.15-1.15,4.04,4.04Z"/>
  <path class="cls-17" d="M520.45,187.17l7.51-7.51,1.15,1.15-8.66,8.66-5.2-5.2,1.15-1.15,4.04,4.04Z"/>
  <path class="cls-20" d="M435.53,446.75l4.35-.73c-7.04-13.32-17.96-24.36-32.46-27.65-5.86-1.66-12.18-2-12.83-1.95-10.3.72-22.21,12.97-27.48,25.7,10.56,2.6,43.18,7.56,68.42,4.64Z"/>
  <g class="cls-13">
    <path class="cls-3" d="M274.33,414.69s-87.76,89.6-84.94,196.89"/>
    <path class="cls-3" d="M284.11,416.41c-3.16-1.35-76.11,114.71-68.47,194.18"/>
    <path class="cls-3" d="M290.51,418.45s-65.37,132.74-49.72,197.32"/>
    <path class="cls-3" d="M299.36,421.09s-54.05,135.2-38.4,199.78"/>
    <path class="cls-3" d="M307.64,424.66s-41.94,131.62-26.29,196.2"/>
    <path class="cls-3" d="M316.68,427.86s-30.15,128.42-14.49,193"/>
    <path class="cls-3" d="M325.2,430.01s-19,108.16,1.22,189.26"/>
    <path class="cls-3" d="M334.09,431.44s-9.14,105.36,12.91,185.03"/>
    <path class="cls-3" d="M344.16,434.26s-4.06,102.78,25.22,183.53"/>
    <path class="cls-3" d="M266.42,411.49s-93.81,78.72-99.61,180.06"/>
    <path class="cls-3" d="M256.44,408.47s-107.14,75.22-112.94,176.56"/>
    <path class="cls-3" d="M245.53,404.52s-121.63,70.7-127.44,172.05"/>
    <path class="cls-3" d="M235.17,400.95s-138.39,61.57-144.19,162.92"/>
    <path class="cls-3" d="M220.16,398.4s-143.7,53.95-149.5,155.29"/>
    <path class="cls-3" d="M210.7,394.55s-153.73,44.25-159.53,145.6"/>
    <path class="cls-3" d="M197.42,391.49s-161.62,37.99-167.42,139.34"/>
    <path class="cls-3" d="M190.19,388.71s-170.48,24.99-176.28,126.34"/>
    <path class="cls-3" d="M175.13,386.45s-186.76,26.27-192.56,127.62"/>
    <path class="cls-3" d="M148.96,385.51s-190.32,27.21-196.12,128.56"/>
    <path class="cls-3" d="M118.09,386.07s-185.83,26.65-191.63,127.99"/>
    <path class="cls-3" d="M87.41,388.15c-6.76-1.71-167.58,17.48-167.13,120.41"/>
    <g>
      <path class="cls-3" d="M353.93,438.55s3.79,102.78,36.12,170.85"/>
      <path class="cls-3" d="M360.73,439.23s2.38,14.55,6.52,34.65,12.31,44.37,21,69.98c6.35,18.7,16.38,38.96,23.72,54.93"/>
      <path class="cls-3" d="M367.53,439.9s4.23,14.41,10.07,32.63c5.66,17.62,18.32,39.92,28.64,63.24,7.77,17.55,21.32,38.09,27.65,52.41"/>
      <path class="cls-3" d="M374.33,440.57s6.09,14.27,13.63,30.6c7.34,15.9,24.43,35.49,36.29,56.51,9.26,16.41,26.27,37.22,31.57,49.89"/>
      <path class="cls-3" d="M381.13,441.25s7.98,14.13,17.18,28.57,30.65,31.03,43.94,49.77c10.82,15.26,31.22,36.35,35.5,47.37"/>
      <path class="cls-3" d="M387.93,441.92s9.88,13.99,20.73,26.54c10.78,12.47,36.97,26.53,51.58,43.04,12.46,14.07,36.16,35.48,39.42,44.84"/>
      <path class="cls-3" d="M394.73,442.59s11.81,13.83,24.29,24.51c12.53,10.73,43.36,21.95,59.23,36.3,14.17,12.82,41.11,34.61,43.35,42.32"/>
      <path class="cls-3" d="M401.53,443.27s13.75,13.64,27.84,22.48c14.28,8.96,49.81,17.27,66.87,29.56,15.93,11.48,46.06,33.74,47.27,39.8"/>
      <path class="cls-3" d="M408.33,443.94s15.68,13.43,31.39,20.45,56.26,12.49,74.52,22.83,51,32.86,51.2,37.27"/>
      <path class="cls-3" d="M415.13,444.62s17.61,13.2,34.95,18.42,62.68,7.62,82.16,16.09c19.48,8.47,55.95,31.99,55.12,34.75"/>
    </g>
  </g>
  <rect class="cls-17" x="485.99" y="50.46" width="14.53" height="11.98"/>
</svg>